<svg aria-hidden="true" style="position:absolute;width:0;height:0;overflow:hidden" xmlns="http://www.w3.org/2000/svg"><defs><symbol id="icon-arrow-left" viewBox="0 0 37 32"><path fill="#fefefe" style="fill:var(--color1, #fefefe)" d="M2.667 21.333v-16A5.333 5.333 0 0 1 8 0h21.333a5.333 5.333 0 0 1 5.333 5.333v16a5.333 5.333 0 0 1-5.333 5.333H8a5.333 5.333 0 0 1-5.333-5.333z"/><path fill="#2c2c2c" style="fill:var(--color2, #2c2c2c)" d="m11.634 13.937 9.288 8.85a.832.832 0 0 0 1.15 0l.01-.01a.78.78 0 0 0 .238-.555.763.763 0 0 0-.238-.555l-8.747-8.333 8.747-8.33a.78.78 0 0 0 .238-.555.763.763 0 0 0-.238-.555l-.01-.01a.832.832 0 0 0-1.15 0l-9.288 8.85a.82.82 0 0 0-.258.603.837.837 0 0 0 .258.603z"/></symbol><symbol id="icon-gg_menuburger" viewBox="0 0 32 32"><path fill="#7eb101" style="fill:var(--color3, #7eb101)" d="M2.666 8A1.335 1.335 0 0 1 4 6.666h24A1.33 1.33 0 0 1 29.333 8 1.333 1.333 0 0 1 28 9.334H4A1.335 1.335 0 0 1 2.666 8zm0 8.043A1.33 1.33 0 0 1 4 14.71h24a1.333 1.333 0 1 1 0 2.666H4a1.333 1.333 0 0 1-1.334-1.333zM4 22.752a1.337 1.337 0 0 0-1.334 1.333A1.33 1.33 0 0 0 4 25.418h24a1.333 1.333 0 1 0 0-2.666H4z"/></symbol><symbol id="icon-logo" viewBox="0 0 44 32"><path fill="#ffe553" style="fill:var(--color4, #ffe553)" d="M16.495 6.456c1.013-1.982 3.846-1.982 4.86 0l1.283 2.51a2.731 2.731 0 0 0 2.002 1.453l2.78.441c2.202.35 3.078 3.049 1.501 4.625l-1.984 1.983a2.728 2.728 0 0 0-.766 2.356l.438 2.773c.348 2.2-1.945 3.868-3.931 2.859l-2.517-1.278a2.73 2.73 0 0 0-2.471 0l-2.517 1.278c-1.986 1.009-4.279-.659-3.931-2.859l.438-2.773a2.732 2.732 0 0 0-.766-2.356l-1.983-1.983c-1.577-1.576-.701-4.275 1.501-4.625l2.78-.441a2.731 2.731 0 0 0 2.002-1.453l1.283-2.51z"/><path fill="#2c2c2c" style="fill:var(--color2, #2c2c2c)" d="m3.476 20.533-.021.005a31 31 0 0 1-.011.9c-.003.524-.004.868-.002 1.032 0 .157-.003.285-.01.384l.001.336c-.001.12-.008.219-.02.296l-.018.206c-.014.13-.042.201-.085.211-.092.022-.236-.049-.432-.212-.197-.17-.311-.319-.341-.447s-.038-1.06-.024-2.798c.021-1.74-.025-2.884-.14-3.432a.415.415 0 0 1 .014-.273c.036-.165.219-.321.551-.467.339-.147.845-.3 1.518-.459.68-.161 1.219-.25 1.619-.27.406-.021.625.032.655.159.02.085-.026.159-.138.223s-.212.117-.299.16a28.49 28.49 0 0 1-.349.138c-.145.049-.28.096-.404.14a11.76 11.76 0 0 0-.489.16c-.193.068-.372.133-.537.194-.167.054-.391.133-.673.237s-.465.169-.548.197c.012.02.023.051.033.093.079.333.122 1.13.129 2.392.444-.082.913-.204 1.405-.365.5-.163.806-.258.92-.284.269-.064.417-.039.444.075.052.219-.212.476-.793.77a8.668 8.668 0 0 1-1.955.697zm6.935-1.951a2.015 2.015 0 0 0-.278-.652c-.13-.201-.281-.334-.453-.398-.457.25-.788.728-.995 1.435-.201.698-.237 1.32-.108 1.865s.344.853.645.924c.486-.219.836-.668 1.049-1.347.219-.687.265-1.296.139-1.827zm-2.772.755c.117-.611.332-1.14.645-1.588.318-.456.686-.734 1.104-.833.425-.1.822-.003 1.191.291.367.287.612.689.735 1.206.121.51.121 1.063.001 1.66a3.774 3.774 0 0 1-.716 1.571c-.35.449-.769.731-1.258.846-.361.085-.702-.01-1.021-.286s-.54-.669-.661-1.179c-.122-.517-.129-1.08-.019-1.689zm7.585-1.892a2.015 2.015 0 0 0-.278-.652c-.13-.201-.281-.334-.453-.398-.457.25-.788.728-.995 1.435-.201.698-.237 1.32-.108 1.865s.344.853.645.924c.486-.22.836-.669 1.049-1.347.219-.687.265-1.296.139-1.827zm-2.771.756c.117-.611.332-1.14.645-1.588.318-.456.686-.734 1.104-.833.425-.1.822-.003 1.191.291.367.287.612.689.735 1.206.121.51.121 1.063.001 1.66a3.774 3.774 0 0 1-.716 1.571c-.35.449-.769.731-1.258.846-.361.085-.702-.01-1.021-.286s-.54-.669-.661-1.179c-.122-.517-.129-1.08-.019-1.689zm7.791-6.988c.113-.027.277.047.49.221.219.165.35.34.393.524s.079.729.107 1.635c.026.899.031 1.836.016 2.811-.02 2.188-.111 3.301-.274 3.34-.099.023-.223-.011-.372-.103-.143-.101-.226-.197-.248-.289s-.041-.282-.057-.57c-.526.872-1.048 1.369-1.565 1.491-.312.074-.628-.001-.951-.224-.315-.225-.509-.489-.581-.794-.104-.439-.111-.987-.02-1.644.096-.666.309-1.299.638-1.9s.745-.961 1.247-1.08.925.1 1.266.655c.005-1.586-.077-2.819-.248-3.699-.05-.212.002-.337.158-.374zm.067 5.491c-.091-.382-.234-.689-.431-.919-.19-.232-.376-.326-.561-.283-.305.072-.572.333-.801.784s-.382.943-.458 1.476c-.07.525-.063.965.021 1.319.03.127.101.219.211.275s.23.069.357.039c.276-.065.601-.351.974-.858a3.565 3.565 0 0 0 .698-1.645l.002-.135-.013-.053zm6.783-.636c.138.581-.009 1.131-.439 1.651-.432.513-.988.85-1.668 1.011-.673.159-1.27.117-1.791-.127-.523-.25-.821-.531-.895-.843-.05-.212-.012-.334.116-.364.113-.027.377.091.79.352.156.09.353.163.59.219.245.054.488.053.728-.004a2.382 2.382 0 0 0 1.227-.693c.329-.347.458-.669.388-.966-.045-.191-.231-.405-.556-.643s-.675-.45-1.049-.639c-.368-.197-.716-.418-1.043-.662s-.512-.455-.554-.632c-.042-.177-.051-.373-.027-.588s.067-.379.131-.491c.204-.37.566-.751 1.087-1.143.527-.394.989-.637 1.386-.731.205-.048.395-.022.568.079s.278.226.313.375c.017.071-.044.145-.183.223s-.352.188-.64.33a5.273 5.273 0 0 0-.741.422c-.741.504-1.077.901-1.008 1.191.037.156.554.493 1.553 1.013.384.201.747.455 1.09.763.348.299.557.598.627.895zm2.44.534c.032.135.126.183.282.147.269-.064.577-.215.924-.454.353-.248.55-.377.593-.387.127-.03.207.022.239.157.049.205-.108.493-.469.862-.354.368-.705.593-1.052.674-.34.08-.645.055-.915-.075-.272-.138-.431-.306-.478-.504s-.064-.46-.051-.784c.011-.332.035-.767.072-1.307.042-.548.07-1 .083-1.354-.314.156-.528.248-.642.275s-.24-.003-.38-.09c-.135-.095-.215-.196-.24-.302-.04-.17.381-.441 1.265-.815a7.64 7.64 0 0 0-.179-1.606c-.05-.212-.005-.335.137-.369.12-.028.288.014.502.128.212.107.341.256.386.447s.065.542.059 1.052c.395-.131.713-.224.954-.281.425-.1.659-.058.703.126.025.106-.071.222-.288.348-.21.124-.665.348-1.367.67-.016.595-.052 1.28-.107 2.055-.057.769-.067 1.231-.03 1.387zm4.747-5.562c.319-.075.651.018.998.28.345.255.548.514.61.776.06.255.034.538-.079.849.11.086.174.168.193.246.047.198.081.549.104 1.052.029.502.051.829.065.983a3.387 3.387 0 0 1 .05.638c.014.184-.029.287-.128.311-.127.03-.26-.055-.397-.254-.132-.208-.246-.488-.345-.838-.441.949-.93 1.487-1.468 1.614-.326.077-.681.015-1.065-.186-.379-.21-.603-.463-.674-.761-.101-.425-.069-.986.095-1.682.162-.704.433-1.358.813-1.964s.79-.96 1.229-1.064zm.932 1.754c-.156-.659-.365-.957-.627-.895-.276.065-.551.339-.826.823-.276.476-.483.993-.62 1.548s-.172.979-.103 1.269c.029.12.102.208.219.262a.606.606 0 0 0 .376.023c.333-.079.655-.39.967-.935.31-.552.471-1.169.481-1.852-.004-.111.041-.189.135-.234l-.002-.011z"/><path fill="#bbf330" style="fill:var(--color5, #bbf330)" d="M33.157 19.973c.64-.158 1.216.415 1.009 1.041C32.059 27.395 26.039 32 18.942 32c-4.32 0-8.24-1.706-11.122-4.48-.475-.458-.233-1.234.408-1.392a.916.916 0 0 1 .848.232 14.284 14.284 0 0 0 9.867 3.935c6.308 0 11.66-4.07 13.571-9.719.1-.296.34-.527.643-.602zM4.187 14.15c-.584.144-1.134-.333-1.03-.926C4.473 5.71 11.04 0 18.943 0c5.152 0 9.736 2.427 12.667 6.198.37.476.106 1.156-.48 1.301a.906.906 0 0 1-.925-.328 14.304 14.304 0 0 0-11.262-5.464c-7.031 0-12.875 5.056-14.089 11.72a.909.909 0 0 1-.667.725z"/><path fill="#bbf330" style="fill:var(--color5, #bbf330);stroke:var(--color5, #bbf330)" stroke="#bbf330" stroke-linejoin="round" stroke-width=".627" d="M43.041 5.332c-3.787 7.241-5.45 2.465-10.782 5.271.533-8.406 6.18-3.291 10.782-5.271z"/></symbol><symbol id="icon-right-arrow" viewBox="0 0 37 32"><path fill="#fefefe" style="fill:var(--color1, #fefefe)" d="M34.667 5.333v16a5.333 5.333 0 0 1-5.333 5.333H8.001a5.333 5.333 0 0 1-5.333-5.333v-16A5.333 5.333 0 0 1 8.001 0h21.333a5.333 5.333 0 0 1 5.333 5.333z"/><path fill="#2c2c2c" style="fill:var(--color2, #2c2c2c)" d="m25.7 12.73-9.288-8.85a.832.832 0 0 0-1.15 0l-.01.01a.78.78 0 0 0-.238.555.763.763 0 0 0 .238.555l8.747 8.333-8.747 8.33a.78.78 0 0 0-.238.555.763.763 0 0 0 .238.555l.01.01a.832.832 0 0 0 1.15 0l9.288-8.85a.82.82 0 0 0 .258-.603.837.837 0 0 0-.258-.603z"/></symbol><symbol id="icon-rocket_launch_FILL0_wght400_GRAD0_opsz48rocket" viewBox="0 0 32 32"><path fill="#7eb101" style="fill:var(--color3, #7eb101)" d="m7.233 13.633 3.533 1.5c.4-.8.828-1.589 1.283-2.367s.939-1.522 1.45-2.233L10.866 10l-3.633 3.633zm5.134 2.7 4.433 4.433c1.267-.578 2.456-1.233 3.567-1.967s2.011-1.444 2.7-2.133c1.8-1.8 3.122-3.644 3.967-5.533s1.3-4.022 1.367-6.4c-2.378.067-4.511.522-6.4 1.367s-3.733 2.167-5.533 3.967c-.689.689-1.4 1.589-2.133 2.7s-1.389 2.3-1.967 3.567zm7.633-3.2c-.444-.444-.667-.995-.667-1.65s.222-1.206.667-1.65.994-.667 1.65-.667c.656 0 1.206.222 1.65.667s.667.994.667 1.65c0 .655-.222 1.206-.667 1.65s-.994.667-1.65.667-1.206-.222-1.65-.667zM19.5 25.9l3.633-3.633-.533-2.633c-.711.511-1.456.994-2.233 1.45S18.8 21.967 18 22.367l1.5 3.533zM30.367 2.767c.2 3.022-.178 5.778-1.133 8.267s-2.533 4.833-4.733 7.033l-.133.133.733 3.667c.067.333.05.656-.05.967s-.272.589-.517.833l-5.7 5.733-2.833-6.6-5.667-5.667-6.6-2.833 5.733-5.7c.244-.244.522-.417.833-.517s.633-.117.967-.05l3.667.733c.022-.022.044-.039.067-.05s.044-.028.067-.05c2.2-2.2 4.544-3.783 7.033-4.75s5.244-1.35 8.267-1.15zm-24.4 18.4c.778-.778 1.728-1.172 2.85-1.183s2.072.372 2.85 1.15c.778.778 1.161 1.728 1.15 2.85s-.406 2.072-1.183 2.85c-.578.578-1.472 1.055-2.683 1.433s-3.028.733-5.45 1.067c.333-2.422.683-4.244 1.05-5.467s.839-2.122 1.417-2.7zm1.4 1.433c-.311.333-.589.856-.833 1.567s-.456 1.622-.633 2.733c1.111-.178 2.022-.389 2.733-.633s1.233-.522 1.567-.833c.422-.378.639-.85.65-1.417s-.183-1.061-.583-1.483c-.422-.4-.917-.595-1.483-.583s-1.039.228-1.417.65z"/></symbol><symbol id="icon-star" viewBox="0 0 36 32"><path fill="#ffe550" style="fill:var(--color6, #ffe550)" d="M17.157 1.037c.593-1.383 2.611-1.383 3.204 0l3.498 8.164c.25.583.815.982 1.463 1.032l9.079.707c1.538.12 2.162 1.983.99 2.958l-6.918 5.752a1.656 1.656 0 0 0-.559 1.67l2.113 8.6c.358 1.457-1.275 2.609-2.592 1.828l-7.773-4.609a1.781 1.781 0 0 0-1.809 0l-7.773 4.609c-1.317.781-2.95-.371-2.592-1.828l2.113-8.6a1.656 1.656 0 0 0-.559-1.67l-6.918-5.752c-1.172-.975-.548-2.838.99-2.958l9.079-.707a1.73 1.73 0 0 0 1.463-1.032l3.498-8.164z"/></symbol><symbol id="icon-touch_app_FILL0_wght400_GRAD0_opsz48" viewBox="0 0 32 32"><path fill="#7eb101" style="fill:var(--color3, #7eb101)" d="M15.5 1.333c2.022 0 3.75.706 5.183 2.117s2.15 3.128 2.15 5.15c0 1.156-.25 2.244-.75 3.267s-1.206 1.889-2.117 2.6h-1.133V12.8c.645-.511 1.139-1.133 1.483-1.867s.517-1.511.517-2.333c0-1.467-.522-2.711-1.567-3.733s-2.3-1.533-3.767-1.533-2.722.511-3.767 1.533c-1.044 1.022-1.567 2.267-1.567 3.733 0 .822.172 1.6.517 2.333s.839 1.356 1.483 1.867v2.4c-1.245-.645-2.222-1.556-2.933-2.733S8.165 10 8.165 8.6c0-2.022.717-3.739 2.15-5.15s3.161-2.117 5.183-2.117zm-1.267 28c-.378 0-.733-.072-1.067-.217s-.622-.339-.867-.583l-6.867-6.867 1.867-1.933c.311-.311.661-.55 1.05-.717s.794-.194 1.217-.083l2.6.6V8.666c0-.933.322-1.722.967-2.367s1.433-.967 2.367-.967 1.722.322 2.367.967c.644.644.967 1.433.967 2.367v5.733h.867c.111 0 .211.022.3.067s.189.089.3.133l4.933 2.4c.533.244.928.639 1.183 1.183s.328 1.106.217 1.683l-1.2 7.267c-.111.645-.422 1.172-.933 1.583s-1.089.617-1.733.617h-8.533zm-.266-2h9.367l1.433-8.3-6.1-3.033h-1.833V8.667c0-.4-.122-.722-.367-.967s-.567-.367-.967-.367-.722.122-.967.367c-.244.244-.367.567-.367.967v13.3l-5.133-1.1-.767.767 5.7 5.7zm9.366 0z"/></symbol>
<symbol id="icon-close" viewBox="0 0 32 32">
<path d="M19.141 16.123l10.676-10.668c0.36-0.42 0.548-0.96 0.527-1.513s-0.251-1.077-0.642-1.467c-0.391-0.391-0.915-0.62-1.469-0.641s-1.093 0.167-1.514 0.526l-10.676 10.558-10.742-10.734c-0.42-0.36-0.961-0.548-1.514-0.526s-1.077 0.25-1.469 0.641c-0.391 0.391-0.62 0.915-0.642 1.467s0.167 1.093 0.527 1.513l10.72 10.844-10.501 10.361c-0.23 0.197-0.417 0.439-0.549 0.711s-0.206 0.569-0.218 0.871 0.039 0.604 0.15 0.885c0.11 0.282 0.278 0.538 0.492 0.751s0.47 0.381 0.752 0.492c0.282 0.11 0.584 0.161 0.886 0.15s0.599-0.086 0.872-0.217c0.273-0.132 0.515-0.318 0.712-0.548l10.479-10.471 10.413 10.405c0.42 0.359 0.961 0.547 1.514 0.526s1.077-0.25 1.469-0.641c0.391-0.391 0.621-0.915 0.642-1.467s-0.167-1.093-0.527-1.512l-10.369-10.295z"></path>
</symbol>
<symbol id="arrow-right">
<path  d="M34.5497 19.095L20.6172 5.81997C20.3848 5.59836 20.0759 5.47473 19.7547 5.47473C19.4336 5.47473 19.1247 5.59836 18.8923 5.81997L18.8772 5.83497C18.7642 5.9424 18.6741 6.07172 18.6126 6.21505C18.551 6.35838 18.5193 6.51274 18.5193 6.66872C18.5193 6.8247 18.551 6.97905 18.6126 7.12239C18.6741 7.26572 18.7642 7.39504 18.8772 7.50247L31.9972 20.0025L18.8772 32.4975C18.7642 32.6049 18.6741 32.7342 18.6126 32.8776C18.551 33.0209 18.5193 33.1752 18.5193 33.3312C18.5193 33.4872 18.551 33.6416 18.6126 33.7849C18.6741 33.9282 18.7642 34.0575 18.8772 34.165L18.8922 34.18C19.1247 34.4016 19.4336 34.5252 19.7547 34.5252C20.0759 34.5252 20.3848 34.4016 20.6172 34.18L34.5497 20.905C34.6723 20.7882 34.7698 20.6478 34.8365 20.4923C34.9031 20.3367 34.9375 20.1692 34.9375 20C34.9375 19.8307 34.9031 19.6632 34.8365 19.5077C34.7698 19.3521 34.6723 19.2117 34.5497 19.095Z" />
</symbol>
<symbol id="arrow-left">
<path  d="M13.4503 20.905L27.3828 34.18C27.6152 34.4016 27.9241 34.5253 28.2453 34.5253C28.5664 34.5253 28.8753 34.4016 29.1077 34.18L29.1228 34.165C29.2358 34.0576 29.3259 33.9283 29.3874 33.7849C29.449 33.6416 29.4807 33.4873 29.4807 33.3313C29.4807 33.1753 29.449 33.0209 29.3874 32.8776C29.3259 32.7343 29.2358 32.605 29.1228 32.4975L16.0028 19.9975L29.1228 7.50253C29.2358 7.3951 29.3259 7.26578 29.3874 7.12245C29.449 6.97911 29.4807 6.82476 29.4807 6.66878C29.4807 6.5128 29.449 6.35845 29.3874 6.21511C29.3259 6.07178 29.2358 5.94246 29.1228 5.83503L29.1078 5.82003C28.8753 5.59842 28.5664 5.47479 28.2453 5.47479C27.9241 5.47479 27.6152 5.59842 27.3828 5.82003L13.4503 19.095C13.3277 19.2118 13.2302 19.3522 13.1635 19.5077C13.0969 19.6633 13.0625 19.8308 13.0625 20C13.0625 20.1693 13.0969 20.3368 13.1635 20.4923C13.2302 20.6479 13.3277 20.7883 13.4503 20.905Z" />
</symbol>
<symbol id="raketa" width="32" height="32" viewBox="0 0 32 32" fill="none" xmlns="http://www.w3.org/2000/svg">
<path d="M7.23333 13.6334L10.7667 15.1334C11.1667 14.3334 11.5944 13.5445 12.05 12.7667C12.5056 11.9889 12.9889 11.2445 13.5 10.5334L10.8667 10L7.23333 13.6334ZM12.3667 16.3334L16.8 20.7667C18.0667 20.1889 19.2556 19.5334 20.3667 18.8C21.4778 18.0667 22.3778 17.3556 23.0667 16.6667C24.8667 14.8667 26.1889 13.0223 27.0333 11.1334C27.8778 9.24448 28.3333 7.11114 28.4 4.73337C26.0222 4.80003 23.8889 5.25559 22 6.10003C20.1111 6.94448 18.2667 8.2667 16.4667 10.0667C15.7778 10.7556 15.0667 11.6556 14.3333 12.7667C13.6 13.8778 12.9444 15.0667 12.3667 16.3334ZM20 13.1334C19.5556 12.6889 19.3333 12.1389 19.3333 11.4834C19.3333 10.8278 19.5556 10.2778 20 9.83337C20.4444 9.38892 20.9944 9.1667 21.65 9.1667C22.3056 9.1667 22.8556 9.38892 23.3 9.83337C23.7444 10.2778 23.9667 10.8278 23.9667 11.4834C23.9667 12.1389 23.7444 12.6889 23.3 13.1334C22.8556 13.5778 22.3056 13.8 21.65 13.8C20.9944 13.8 20.4444 13.5778 20 13.1334ZM19.5 25.9L23.1333 22.2667L22.6 19.6334C21.8889 20.1445 21.1444 20.6278 20.3667 21.0834C19.5889 21.5389 18.8 21.9667 18 22.3667L19.5 25.9ZM30.3667 2.7667C30.5667 5.78892 30.1889 8.54448 29.2333 11.0334C28.2778 13.5223 26.7 15.8667 24.5 18.0667L24.4333 18.1334L24.3667 18.2L25.1 21.8667C25.1667 22.2 25.15 22.5223 25.05 22.8334C24.95 23.1445 24.7778 23.4223 24.5333 23.6667L18.8333 29.4L16 22.8L10.3333 17.1334L3.73333 14.3L9.46667 8.60003C9.71111 8.35559 9.98889 8.18337 10.3 8.08337C10.6111 7.98337 10.9333 7.9667 11.2667 8.03337L14.9333 8.7667C14.9556 8.74448 14.9778 8.72781 15 8.7167C15.0222 8.70559 15.0444 8.68892 15.0667 8.6667C17.2667 6.4667 19.6111 4.88337 22.1 3.9167C24.5889 2.95003 27.3444 2.5667 30.3667 2.7667V2.7667ZM5.96667 21.1667C6.74444 20.3889 7.69444 19.9945 8.81667 19.9834C9.93889 19.9723 10.8889 20.3556 11.6667 21.1334C12.4444 21.9111 12.8278 22.8611 12.8167 23.9834C12.8056 25.1056 12.4111 26.0556 11.6333 26.8334C11.0556 27.4111 10.1611 27.8889 8.95 28.2667C7.73889 28.6445 5.92222 29 3.5 29.3334C3.83333 26.9111 4.18333 25.0889 4.55 23.8667C4.91667 22.6445 5.38889 21.7445 5.96667 21.1667V21.1667ZM7.36667 22.6C7.05556 22.9334 6.77778 23.4556 6.53333 24.1667C6.28889 24.8778 6.07778 25.7889 5.9 26.9C7.01111 26.7223 7.92222 26.5111 8.63333 26.2667C9.34444 26.0223 9.86667 25.7445 10.2 25.4334C10.6222 25.0556 10.8389 24.5834 10.85 24.0167C10.8611 23.45 10.6667 22.9556 10.2667 22.5334C9.84444 22.1334 9.35 21.9389 8.78333 21.95C8.21667 21.9611 7.74444 22.1778 7.36667 22.6Z" fill="#7EB101"/>
</symbol>
<symbol id="touch" width="32" height="32" viewBox="0 0 32 32" fill="none" xmlns="http://www.w3.org/2000/svg">
<path d="M15.5003 1.33331C17.5225 1.33331 19.2503 2.03887 20.6836 3.44998C22.1169 4.86109 22.8336 6.57776 22.8336 8.59998C22.8336 9.75554 22.5836 10.8444 22.0836 11.8666C21.5836 12.8889 20.878 13.7555 19.9669 14.4666H18.8336V12.8C19.478 12.2889 19.9725 11.6666 20.3169 10.9333C20.6614 10.2 20.8336 9.4222 20.8336 8.59998C20.8336 7.13331 20.3114 5.88887 19.2669 4.86665C18.2225 3.84442 16.9669 3.33331 15.5003 3.33331C14.0336 3.33331 12.778 3.84442 11.7336 4.86665C10.6891 5.88887 10.1669 7.13331 10.1669 8.59998C10.1669 9.4222 10.3391 10.2 10.6836 10.9333C11.028 11.6666 11.5225 12.2889 12.1669 12.8V15.2C10.9225 14.5555 9.94471 13.6444 9.23359 12.4666C8.52248 11.2889 8.16693 9.99998 8.16693 8.59998C8.16693 6.57776 8.88359 4.86109 10.3169 3.44998C11.7503 2.03887 13.478 1.33331 15.5003 1.33331ZM14.2336 29.3333C13.8558 29.3333 13.5003 29.2611 13.1669 29.1166C12.8336 28.9722 12.5447 28.7778 12.3003 28.5333L5.43359 21.6666L7.30026 19.7333C7.61137 19.4222 7.96137 19.1833 8.35026 19.0166C8.73915 18.85 9.14471 18.8222 9.56693 18.9333L12.1669 19.5333V8.66665C12.1669 7.73331 12.4891 6.94442 13.1336 6.29998C13.778 5.65554 14.5669 5.33331 15.5003 5.33331C16.4336 5.33331 17.2225 5.65554 17.8669 6.29998C18.5114 6.94442 18.8336 7.73331 18.8336 8.66665V14.4H19.7003C19.8114 14.4 19.9114 14.4222 20.0003 14.4666C20.0891 14.5111 20.1891 14.5555 20.3003 14.6L25.2336 17C25.7669 17.2444 26.1614 17.6389 26.4169 18.1833C26.6725 18.7278 26.7447 19.2889 26.6336 19.8666L25.4336 27.1333C25.3225 27.7778 25.0114 28.3055 24.5003 28.7166C23.9891 29.1278 23.4114 29.3333 22.7669 29.3333H14.2336ZM13.9669 27.3333H23.3336L24.7669 19.0333L18.6669 16H16.8336V8.66665C16.8336 8.26665 16.7114 7.94442 16.4669 7.69998C16.2225 7.45554 15.9003 7.33331 15.5003 7.33331C15.1003 7.33331 14.778 7.45554 14.5336 7.69998C14.2891 7.94442 14.1669 8.26665 14.1669 8.66665V21.9666L9.03359 20.8666L8.26693 21.6333L13.9669 27.3333ZM23.3336 27.3333H13.9669H23.3336Z" fill="#7EB101"/>
</symbol>
<symbol id="read-more" width="15" height="14" viewBox="0 0 15 14" fill="none" xmlns="http://www.w3.org/2000/svg">
<path fill-rule="evenodd" clip-rule="evenodd" d="M9.59478 6.87253C9.74906 7.02681 9.74906 7.2769 9.59478 7.43118L5.56715 11.4588C5.41287 11.6131 5.16278 11.6131 5.0085 11.4588L4.82225 11.2726C4.66797 11.1183 4.66797 10.8682 4.82225 10.7139L8.38431 7.15186L4.82225 3.5898C4.66797 3.43552 4.66797 3.18543 4.82225 3.03115L5.0085 2.8449C5.16278 2.69062 5.41287 2.69062 5.56715 2.8449L9.59478 6.87253Z" fill="black"/>
</symbol>
</defs></svg>
</defs></svg>